<svg width="35" height="36" viewBox="0 0 35 36" fill="none" xmlns="http://www.w3.org/2000/svg">
<path d="M11.9426 33.792V28.2881C11.9426 26.8831 13.0899 25.7441 14.5052 25.7441H19.6787C20.3583 25.7441 21.0101 26.0122 21.4907 26.4892C21.9713 26.9663 22.2413 27.6134 22.2413 28.2881V33.792C22.237 34.3761 22.4677 34.9378 22.8823 35.3523C23.2968 35.7668 23.8609 36 24.4493 36H27.9789C29.6273 36.0042 31.2097 35.3571 32.3769 34.2014C33.544 33.0458 34.2 31.4765 34.2 29.8401V14.1603C34.2 12.8384 33.6097 11.5845 32.5883 10.7364L20.5812 1.21656C18.4926 -0.452589 15.5 -0.398696 13.4737 1.34456L1.74062 10.7364C0.670933 11.5595 0.0315941 12.8171 0 14.1603V29.8241C0 33.2349 2.78529 36 6.22111 36H9.67012C10.8922 36 11.8854 35.0212 11.8942 33.808L11.9426 33.792Z" fill="white"/>
</svg>
