<svg width="20" height="21" viewBox="0 0 20 21" fill="none" xmlns="http://www.w3.org/2000/svg">
<path fill-rule="evenodd" clip-rule="evenodd" d="M3.6 3.2999V6.8999H2.4C1.76348 6.8999 1.15303 7.15276 0.702944 7.60285C0.252856 8.05293 0 8.66338 0 9.2999V12.8999C0 13.5364 0.252856 14.1469 0.702944 14.597C1.15303 15.047 1.76348 15.2999 2.4 15.2999H3.6V17.6999C3.6 18.3364 3.85286 18.9469 4.30294 19.397C4.75303 19.847 5.36348 20.0999 6 20.0999H13.2C13.8365 20.0999 14.447 19.847 14.8971 19.397C15.3471 18.9469 15.6 18.3364 15.6 17.6999V15.2999H16.8C17.4365 15.2999 18.047 15.047 18.4971 14.597C18.9471 14.1469 19.2 13.5364 19.2 12.8999V9.2999C19.2 8.66338 18.9471 8.05293 18.4971 7.60285C18.047 7.15276 17.4365 6.8999 16.8 6.8999H15.6V3.2999C15.6 2.66338 15.3471 2.05293 14.8971 1.60285C14.447 1.15276 13.8365 0.899902 13.2 0.899902H6C5.36348 0.899902 4.75303 1.15276 4.30294 1.60285C3.85286 2.05293 3.6 2.66338 3.6 3.2999ZM13.2 3.2999H6V6.8999H13.2V3.2999ZM13.2 12.8999H6V17.6999H13.2V12.8999Z" fill="white"/>
</svg>
