<svg width="24" height="24" viewBox="0 0 24 24" fill="none" xmlns="http://www.w3.org/2000/svg">
<path d="M16.95 10.23L11.29 15.89C11.1975 15.9827 11.0876 16.0563 10.9666 16.1064C10.8457 16.1566 10.716 16.1825 10.585 16.1825C10.454 16.1825 10.3243 16.1566 10.2034 16.1064C10.0824 16.0563 9.97251 15.9827 9.88 15.89L7.05 13.06C6.95742 12.9674 6.88398 12.8575 6.83387 12.7366C6.78377 12.6156 6.75798 12.4859 6.75798 12.355C6.75798 12.2241 6.78377 12.0944 6.83387 11.9735C6.88398 11.8525 6.95742 11.7426 7.05 11.65C7.14258 11.5574 7.25249 11.484 7.37346 11.4339C7.49442 11.3838 7.62407 11.358 7.755 11.358C7.88593 11.358 8.01558 11.3838 8.13654 11.4339C8.25751 11.484 8.36742 11.5574 8.46 11.65L10.58 13.77L15.53 8.82001C15.6225 8.72731 15.7324 8.65376 15.8534 8.60358C15.9743 8.5534 16.104 8.52757 16.235 8.52757C16.366 8.52757 16.4957 8.5534 16.6166 8.60358C16.7376 8.65376 16.8475 8.72731 16.94 8.82001C17.34 9.21001 17.34 9.84001 16.95 10.23ZM4 12C4 9.67001 5.02 7.58001 6.62 6.12001L8.15 7.65001C8.2205 7.71911 8.30987 7.7658 8.40686 7.78419C8.50384 7.80259 8.60411 7.79186 8.69501 7.75336C8.7859 7.71486 8.86337 7.65031 8.91765 7.56786C8.97193 7.4854 9.00058 7.38873 9 7.29001V3.00001C9 2.72001 8.78 2.50001 8.5 2.50001H4.21C3.76 2.50001 3.54 3.04001 3.86 3.35001L5.2 4.70001C3.24 6.52001 2 9.11001 2 12C2 16.75 5.32 20.73 9.76 21.75C10.39 21.89 11 21.42 11 20.77C11 20.3 10.67 19.9 10.21 19.79C6.66 18.98 4 15.8 4 12ZM22 12C22 7.25001 18.68 3.27001 14.24 2.25001C13.61 2.11001 13 2.58001 13 3.23001C13 3.70001 13.33 4.10001 13.79 4.21001C17.34 5.02001 20 8.20001 20 12C20 14.33 18.98 16.42 17.38 17.88L15.85 16.35C15.7795 16.2809 15.6901 16.2342 15.5931 16.2158C15.4962 16.1974 15.3959 16.2082 15.305 16.2467C15.2141 16.2852 15.1366 16.3497 15.0823 16.4322C15.0281 16.5146 14.9994 16.6113 15 16.71V21C15 21.28 15.22 21.5 15.5 21.5H19.79C20.24 21.5 20.46 20.96 20.14 20.65L18.8 19.3C20.76 17.48 22 14.89 22 12Z" fill="#F8F8F8"/>
</svg>
